<?xml version="1.0" encoding="UTF-8"?>
<svg width="630px" height="452px" viewBox="0 0 630 452" version="1.1" xmlns="http://www.w3.org/2000/svg" xmlns:xlink="http://www.w3.org/1999/xlink">
    <!-- Generator: Sketch 55.2 (78181) - https://sketchapp.com -->
    <title>Group 4</title>
    <desc>Created with Sketch.</desc>
    <g id="Page-1" stroke="none" stroke-width="1" fill="none" fill-rule="evenodd" fill-opacity="0.18">
        <g id="Group-2" transform="translate(0.000000, -49.000000)" fill="#FFFFFF">
            <g id="Group-4" transform="translate(0.000000, 0.400404)">
                <path d="M411.526795,197.724847 C411.526795,206.237259 416.080019,214.103474 423.471643,218.35968 L502.716426,263.992045 C510.108049,268.248252 519.214499,268.248252 526.606122,263.992045 L605.850905,218.35968 C613.242529,214.103474 617.795753,206.237259 617.795753,197.724847 L617.795753,106.459735 C617.795753,97.9469406 613.242529,90.0811078 605.850905,85.8245197 L526.606122,40.1921548 C519.214499,35.9359484 510.108049,35.9359484 502.716426,40.1921548 L423.471643,85.8245197 C416.080019,90.0811078 411.526795,97.9469406 411.526795,106.459735 L411.526795,197.724847 Z" id="Fill-1" transform="translate(514.661274, 152.092100) rotate(-330.000000) translate(-514.661274, -152.092100) "></path>
                <path d="M0,430.788547 C0,439.30096 4.55322462,447.167175 11.9448479,451.423381 L91.1896314,497.055746 C98.5812547,501.311952 107.687704,501.311952 115.079327,497.055746 L194.324111,451.423381 C201.715734,447.167175 206.268959,439.30096 206.268959,430.788547 L206.268959,339.523436 C206.268959,331.010641 201.715734,323.144809 194.324111,318.88822 L115.079327,273.255856 C107.687704,268.999649 98.5812547,268.999649 91.1896314,273.255856 L11.9448479,318.88822 C4.55322462,323.144809 0,331.010641 0,339.523436 L0,430.788547 Z" id="Fill-1" transform="translate(103.134479, 385.155801) rotate(-360.000000) translate(-103.134479, -385.155801) "></path>
            </g>
        </g>
    </g>
</svg>