<?xml version="1.0" encoding="UTF-8"?>
<svg width="55px" height="49px" viewBox="0 0 55 49" version="1.1" xmlns="http://www.w3.org/2000/svg" xmlns:xlink="http://www.w3.org/1999/xlink">
    <!-- Generator: Sketch 55.2 (78181) - https://sketchapp.com -->
    <title>Fill 1</title>
    <desc>Created with Sketch.</desc>
    <defs>
        <linearGradient x1="34.4430017%" y1="14.3140713%" x2="131.062329%" y2="100%" id="linearGradient-1">
            <stop stop-color="#FFA000" offset="0%"></stop>
            <stop stop-color="#FFECB3" offset="100%"></stop>
        </linearGradient>
    </defs>
    <g id="Page-1" stroke="none" stroke-width="1" fill="none" fill-rule="evenodd">
        <path d="M3.56921938,35.4705736 C3.56921938,37.4675408 4.62878153,39.3129133 6.34885575,40.3113968 L24.789583,51.0165091 C26.5096572,52.0149927 28.6287815,52.0149927 30.3488557,51.0165091 L48.789583,40.3113968 C50.5096572,39.3129133 51.5692194,37.4675408 51.5692194,35.4705736 L51.5692194,14.0602595 C51.5692194,12.0632028 50.5096572,10.2179199 48.789583,9.21934677 L30.3488557,-1.4857655 C28.6287815,-2.48424909 26.5096572,-2.48424909 24.789583,-1.4857655 L6.34885575,9.21934677 C4.62878153,10.2179199 3.56921938,12.0632028 3.56921938,14.0602595 L3.56921938,35.4705736 Z" id="Fill-1" fill="url(#linearGradient-1)" transform="translate(27.569219, 24.765372) rotate(-330.000000) translate(-27.569219, -24.765372) "></path>
    </g>
</svg>