<?xml version="1.0" encoding="UTF-8"?>
<svg width="444px" height="330px" viewBox="0 0 444 330" version="1.1" xmlns="http://www.w3.org/2000/svg" xmlns:xlink="http://www.w3.org/1999/xlink">
    <g id="main" stroke="none" stroke-width="1" fill="none" fill-rule="evenodd">
        <g transform="translate(227.651059, 155.535288) rotate(-27.000000) translate(-227.651059, -155.535288) translate(56.651059, -60.964712)" fill="#000000">
            <path d="M0.44343974,128.791576 C0.44343974,135.606019 4.09101735,141.903161 10.0124295,145.310383 L73.4952406,181.840468 C79.4166528,185.24769 86.711808,185.24769 92.6332201,181.840468 L156.116031,145.310383 C162.037443,141.903161 165.685021,135.606019 165.685021,128.791576 L165.685021,55.7310994 C165.685021,48.9163504 162.037443,42.6195139 156.116031,39.2119866 L92.6332201,2.6819012 C86.711808,-0.725320492 79.4166528,-0.725320492 73.4952406,2.6819012 L10.0124295,39.2119866 C4.09101735,42.6195139 0.44343974,48.9163504 0.44343974,55.7310994 L0.44343974,128.791576 Z" id="Fill-1"></path>
            <path d="M95.127122,349.251509 C95.127122,359.454656 100.576382,368.883258 109.422613,373.984832 L204.262085,428.680693 C213.108316,433.782267 224.006836,433.782267 232.853067,428.680693 L327.692539,373.984832 C336.53877,368.883258 341.98803,359.454656 341.98803,349.251509 L341.98803,239.859328 C341.98803,229.655723 336.53877,220.227579 327.692539,215.125548 L232.853067,160.429686 C224.006836,155.328112 213.108316,155.328112 204.262085,160.429686 L109.422613,215.125548 C100.576382,220.227579 95.127122,229.655723 95.127122,239.859328 L95.127122,349.251509 Z" id="Fill-1"></path>
        </g>
    </g>
</svg>