<?xml version="1.0" encoding="utf-8"?>
<!-- Generator: Adobe Illustrator 22.0.0, SVG Export Plug-In . SVG Version: 6.00 Build 0)  -->
<svg version="1.1" id="Layer_1" xmlns="http://www.w3.org/2000/svg" xmlns:xlink="http://www.w3.org/1999/xlink" x="0px" y="0px"
	 viewBox="0 0 512 512" style="enable-background:new 0 0 512 512;" xml:space="preserve">
<style type="text/css">
	.st0{fill:url(#SVGID_1_);stroke:url(#SVGID_2_);stroke-width:16;stroke-miterlimit:10;}
	.st1{fill:none;stroke:#FFFFFF;stroke-width:17;stroke-miterlimit:10;}
</style>
<g>
	<linearGradient id="SVGID_1_" gradientUnits="userSpaceOnUse" x1="146.679" y1="445.3496" x2="365.321" y2="66.6504">
		<stop  offset="0.1846" style="stop-color:#4CAF50"/>
		<stop  offset="0.2277" style="stop-color:#9FB72E"/>
		<stop  offset="0.8189" style="stop-color:#FFC107"/>
	</linearGradient>
	<linearGradient id="SVGID_2_" gradientUnits="userSpaceOnUse" x1="29.3579" y1="256" x2="482.6421" y2="256">
		<stop  offset="0.1811" style="stop-color:#FFC107"/>
		<stop  offset="0.7723" style="stop-color:#9FB72E"/>
		<stop  offset="0.8154" style="stop-color:#4CAF50"/>
	</linearGradient>
	<path class="st0" d="M37.4,170.7v170.6c0,25.3,13.5,48.7,35.5,61.4L220.5,488c21.9,12.7,49,12.7,70.9,0l147.7-85.3
		c21.9-12.7,35.5-36.1,35.5-61.4V170.7c0-25.3-13.5-48.7-35.5-61.4L291.5,24c-21.9-12.7-49-12.7-70.9,0L72.8,109.3
		C50.9,122,37.4,145.4,37.4,170.7z"/>
	<g>
		<path class="st1" d="M141.7,327.9V181.4H160v130.2H228v16.3H141.7z"/>
		<path class="st1" d="M266.4,281.4v-74.2h17.3v73.1c0,21.5,12.1,35.1,34.5,35.1c22.4,0,34.7-13.6,34.7-35.1v-73.1h17.3v74.2
			c0,29.9-17.6,49.2-52,49.2C283.7,330.6,266.4,311,266.4,281.4z"/>
	</g>
</g>
</svg>
