<?xml version="1.0" encoding="UTF-8"?>
<svg width="305px" height="304px" viewBox="0 0 305 304" version="1.1" xmlns="http://www.w3.org/2000/svg" xmlns:xlink="http://www.w3.org/1999/xlink">
    <g id="main" stroke="none" stroke-width="1" fill="none" fill-rule="evenodd">
        <g transform="translate(-82.000000, -68.000000)" fill="#000000">
            <g id="Rotate" transform="translate(203.500000, 201.352321) rotate(-27.000000) translate(-203.500000, -201.352321) translate(51.000000, 54.000000)">
                <path d="M0.251779512,246.826389 C0.251779512,252.66427 3.37663097,258.058983 8.44945884,260.977923 L62.8346909,292.272964 C67.9075188,295.191905 74.1572217,295.191905 79.2300496,292.272964 L133.615282,260.977923 C138.688109,258.058983 141.812961,252.66427 141.812961,246.826389 L141.812961,184.236046 C141.812961,178.397903 138.688109,173.003452 133.615282,170.08425 L79.2300496,138.789209 C74.1572217,135.870269 67.9075188,135.870269 62.8346909,138.789209 L8.44945884,170.08425 C3.37663097,173.003452 0.251779512,178.397903 0.251779512,184.236046 L0.251779512,246.826389 Z" id="Fill-1"></path>
                <path d="M82.1856754,110.412887 C82.1856754,116.250768 85.3105269,121.645481 90.3833548,124.564421 L144.768587,155.859462 C149.841415,158.778403 156.091118,158.778403 161.163945,155.859462 L215.549178,124.564421 C220.622005,121.645481 223.746857,116.250768 223.746857,110.412887 L223.746857,47.8225436 C223.746857,41.984401 220.622005,36.58995 215.549178,33.6707478 L161.163945,2.37570687 C156.091118,-0.54323354 149.841415,-0.54323354 144.768587,2.37570687 L90.3833548,33.6707478 C85.3105269,36.58995 82.1856754,41.984401 82.1856754,47.8225436 L82.1856754,110.412887 Z" id="Fill-1"></path>
                <path d="M163.261625,246.826389 C163.261625,252.66427 166.386476,258.058983 171.459304,260.977923 L225.844536,292.272964 C230.917364,295.191905 237.167067,295.191905 242.239895,292.272964 L296.625127,260.977923 C301.697955,258.058983 304.822806,252.66427 304.822806,246.826389 L304.822806,184.236046 C304.822806,178.397903 301.697955,173.003452 296.625127,170.08425 L242.239895,138.789209 C237.167067,135.870269 230.917364,135.870269 225.844536,138.789209 L171.459304,170.08425 C166.386476,173.003452 163.261625,178.397903 163.261625,184.236046 L163.261625,246.826389 Z" id="Fill-1"></path>
            </g>
        </g>
    </g>
</svg>